<svg width="32" height="33" viewBox="0 0 32 33" fill="none" xmlns="http://www.w3.org/2000/svg">
<path d="M27 0.696777H5C2.23858 0.696777 0 2.93535 0 5.69678V27.6968C0 30.4582 2.23858 32.6968 5 32.6968H27C29.7614 32.6968 32 30.4582 32 27.6968V5.69678C32 2.93535 29.7614 0.696777 27 0.696777Z" fill="#1877F2"/>
<path d="M24 16.6968C24 12.2968 20.4 8.69678 16 8.69678C11.6 8.69678 8 12.2968 8 16.6968C8 20.6968 10.9 23.9968 14.7 24.5968V18.9968H12.7V16.6968H14.7V14.8968C14.7 12.8968 15.9 11.7968 17.7 11.7968C18.6 11.7968 19.5 11.9968 19.5 11.9968V13.9968H18.5C17.5 13.9968 17.2 14.5968 17.2 15.1968V16.6968H19.4L19 18.9968H17.1V24.6968C21.1 24.0968 24 20.6968 24 16.6968Z" fill="white"/>
</svg>
