<svg width="32" height="33" viewBox="0 0 32 33" fill="none" xmlns="http://www.w3.org/2000/svg">
<path d="M27 0.696777H5C2.23858 0.696777 0 2.93535 0 5.69678V27.6968C0 30.4582 2.23858 32.6968 5 32.6968H27C29.7614 32.6968 32 30.4582 32 27.6968V5.69678C32 2.93535 29.7614 0.696777 27 0.696777Z" fill="#F00073"/>
<path d="M15.9992 9.89673C18.1992 9.89673 18.4992 9.89673 19.3992 9.89673C20.1992 9.89673 20.5992 10.0967 20.8992 10.1967C21.2992 10.3967 21.5992 10.4967 21.8992 10.7967C22.1992 11.0967 22.3992 11.3967 22.4992 11.7967C22.5992 12.0967 22.6992 12.4967 22.7992 13.2967C22.7992 14.1967 22.7992 14.3967 22.7992 16.6967C22.7992 18.9967 22.7992 19.1967 22.7992 20.0967C22.7992 20.8967 22.5992 21.2967 22.4992 21.5967C22.2992 21.9967 22.1992 22.2967 21.8992 22.5967C21.5992 22.8967 21.2992 23.0967 20.8992 23.1967C20.5992 23.2967 20.1992 23.3967 19.3992 23.4967C18.4992 23.4967 18.2992 23.4967 15.9992 23.4967C13.6992 23.4967 13.4992 23.4967 12.5992 23.4967C11.7992 23.4967 11.3992 23.2967 11.0992 23.1967C10.6992 22.9967 10.3992 22.8967 10.0992 22.5967C9.79922 22.2967 9.59922 21.9967 9.49922 21.5967C9.39922 21.2967 9.29922 20.8967 9.19922 20.0967C9.19922 19.1967 9.19922 18.9967 9.19922 16.6967C9.19922 14.3967 9.19922 14.1967 9.19922 13.2967C9.19922 12.4967 9.39922 12.0967 9.49922 11.7967C9.69922 11.3967 9.79922 11.0967 10.0992 10.7967C10.3992 10.4967 10.6992 10.2967 11.0992 10.1967C11.3992 10.0967 11.7992 9.99673 12.5992 9.89673C13.4992 9.89673 13.7992 9.89673 15.9992 9.89673ZM15.9992 8.39673C13.6992 8.39673 13.4992 8.39673 12.5992 8.39673C11.6992 8.39673 11.0992 8.59673 10.5992 8.79673C10.0992 8.99673 9.59922 9.29673 9.09922 9.79673C8.59922 10.2967 8.39922 10.6967 8.09922 11.2967C7.89922 11.7967 7.79922 12.3967 7.69922 13.2967C7.69922 14.1967 7.69922 14.4967 7.69922 16.6967C7.69922 18.9967 7.69922 19.1967 7.69922 20.0967C7.69922 20.9967 7.89922 21.5967 8.09922 22.0967C8.29922 22.5967 8.59922 23.0967 9.09922 23.5967C9.59922 24.0967 9.99922 24.2967 10.5992 24.5967C11.0992 24.7967 11.6992 24.8967 12.5992 24.9967C13.4992 24.9967 13.7992 24.9967 15.9992 24.9967C18.1992 24.9967 18.4992 24.9967 19.3992 24.9967C20.2992 24.9967 20.8992 24.7967 21.3992 24.5967C21.8992 24.3967 22.3992 24.0967 22.8992 23.5967C23.3992 23.0967 23.5992 22.6967 23.8992 22.0967C24.0992 21.5967 24.1992 20.9967 24.2992 20.0967C24.2992 19.1967 24.2992 18.8967 24.2992 16.6967C24.2992 14.4967 24.2992 14.1967 24.2992 13.2967C24.2992 12.3967 24.0992 11.7967 23.8992 11.2967C23.6992 10.7967 23.3992 10.2967 22.8992 9.79673C22.3992 9.29673 21.9992 9.09673 21.3992 8.79673C20.8992 8.59673 20.2992 8.49673 19.3992 8.39673C18.4992 8.39673 18.2992 8.39673 15.9992 8.39673Z" fill="white"/>
<path d="M15.9992 12.3967C13.5992 12.3967 11.6992 14.2967 11.6992 16.6967C11.6992 19.0967 13.5992 20.9967 15.9992 20.9967C18.3992 20.9967 20.2992 19.0967 20.2992 16.6967C20.2992 14.2967 18.3992 12.3967 15.9992 12.3967ZM15.9992 19.4967C14.4992 19.4967 13.1992 18.2967 13.1992 16.6967C13.1992 15.1967 14.3992 13.8967 15.9992 13.8967C17.4992 13.8967 18.7992 15.0967 18.7992 16.6967C18.7992 18.1967 17.4992 19.4967 15.9992 19.4967Z" fill="white"/>
<path d="M20.3992 13.2967C20.9515 13.2967 21.3992 12.849 21.3992 12.2967C21.3992 11.7444 20.9515 11.2967 20.3992 11.2967C19.8469 11.2967 19.3992 11.7444 19.3992 12.2967C19.3992 12.849 19.8469 13.2967 20.3992 13.2967Z" fill="white"/>
</svg>
