<svg width="288" height="232" viewBox="0 0 288 232" fill="none" xmlns="http://www.w3.org/2000/svg">
<rect x="2.04948" y="33.0125" width="261.772" height="198.278" rx="65.7215" transform="rotate(-6.97129 2.04948 33.0125)" stroke="#0066FF" stroke-width="2.22785"/>
<path d="M43.2894 110.101C41.9042 105.379 44.6097 100.427 49.3324 99.0422L149.619 69.6276C161.426 66.1646 173.804 72.9285 177.267 84.7352L192.316 136.042C193.701 140.765 190.995 145.716 186.273 147.101L85.9861 176.516C74.1794 179.979 61.801 173.215 58.338 161.408L43.2894 110.101Z" fill="#0066FF"/>
<path d="M191.824 105.532C188.428 105.053 186.824 101.077 188.937 98.3751L215.086 64.9401C217.199 62.2383 221.445 62.8371 222.728 66.018L238.609 105.381C239.892 108.562 237.251 111.94 233.855 111.461L191.824 105.532Z" fill="#0066FF"/>
</svg>
