<svg width="139" height="53" viewBox="0 0 139 53" fill="none" xmlns="http://www.w3.org/2000/svg">
<path d="M0 40.4999L2.81166 30.2283C1.07666 27.2216 0.165 23.8133 0.166666 20.3183C0.171666 9.39164 9.06331 0.5 19.9883 0.5C25.2899 0.501667 30.2666 2.56666 34.0099 6.31332C37.7516 10.06 39.8116 15.04 39.8099 20.3366C39.8049 31.2649 30.9133 40.1566 19.9883 40.1566C16.6716 40.1549 13.4033 39.3232 10.5083 37.7432L0 40.4999ZM10.995 34.1549C13.7883 35.8132 16.455 36.8066 19.9816 36.8082C29.0616 36.8082 36.4583 29.4183 36.4633 20.3333C36.4666 11.23 29.1049 3.84999 19.995 3.84666C10.9083 3.84666 3.51666 11.2366 3.51333 20.3199C3.51166 24.0283 4.59832 26.8049 6.42332 29.7099L4.75832 35.7899L10.995 34.1549ZM29.9733 25.0483C29.8499 24.8416 29.5199 24.7183 29.0233 24.4699C28.5283 24.2216 26.0933 23.0233 25.6383 22.8583C25.1849 22.6933 24.8549 22.6099 24.5233 23.1066C24.1933 23.6016 23.2433 24.7183 22.9549 25.0483C22.6666 25.3783 22.3766 25.4199 21.8816 25.1716C21.3866 24.9233 19.79 24.4016 17.8983 22.7133C16.4266 21.3999 15.4316 19.7783 15.1433 19.2816C14.855 18.7866 15.1133 18.5183 15.36 18.2716C15.5833 18.05 15.855 17.6933 16.1033 17.4033C16.355 17.1166 16.4366 16.91 16.6033 16.5783C16.7683 16.2483 16.6866 15.9583 16.5616 15.71C16.4366 15.4633 15.4466 13.025 15.035 12.0333C14.6316 11.0683 14.2233 11.1983 13.92 11.1833L12.97 11.1666C12.64 11.1666 12.1033 11.29 11.65 11.7866C11.1966 12.2833 9.91664 13.48 9.91664 15.9183C9.91664 18.3566 11.6916 20.7116 11.9383 21.0416C12.1866 21.3716 15.43 26.3749 20.3983 28.5199C21.58 29.0299 22.5033 29.3349 23.2216 29.5633C24.4083 29.9399 25.4883 29.8866 26.3416 29.7599C27.2933 29.6183 29.2716 28.5616 29.6849 27.4049C30.0983 26.2466 30.0983 25.2549 29.9733 25.0483Z" fill="#25D366"/>
<g filter="url(#filter0_d_10340_6556)">
<rect x="44" y="12.5" width="87" height="28" rx="4" fill="white"/>
<rect x="44.5" y="13" width="86" height="27" rx="3.5" stroke="#FAFAFA"/>
<path d="M53.064 31.5V21.7H54.184L54.674 23.548V31.5H53.064ZM59.854 31.5L53.988 23.842L54.184 21.7L60.05 29.358L59.854 31.5ZM59.854 31.5L59.364 29.778V21.7H60.974V31.5H59.854ZM65.8712 31.64C65.1992 31.64 64.5925 31.4907 64.0512 31.192C63.5192 30.884 63.0945 30.464 62.7772 29.932C62.4692 29.4 62.3152 28.8027 62.3152 28.14C62.3152 27.4773 62.4692 26.8847 62.7772 26.362C63.0852 25.83 63.5005 25.41 64.0232 25.102C64.5552 24.794 65.1432 24.64 65.7872 24.64C66.4125 24.64 66.9632 24.7847 67.4392 25.074C67.9245 25.3633 68.3025 25.76 68.5732 26.264C68.8532 26.768 68.9932 27.342 68.9932 27.986C68.9932 28.098 68.9838 28.2147 68.9652 28.336C68.9558 28.448 68.9372 28.574 68.9092 28.714H63.3932V27.454H68.1112L67.5372 27.958C67.5185 27.5473 67.4392 27.202 67.2992 26.922C67.1592 26.642 66.9585 26.4273 66.6972 26.278C66.4452 26.1287 66.1325 26.054 65.7592 26.054C65.3672 26.054 65.0265 26.138 64.7372 26.306C64.4478 26.474 64.2238 26.712 64.0652 27.02C63.9065 27.3187 63.8272 27.678 63.8272 28.098C63.8272 28.518 63.9112 28.8867 64.0792 29.204C64.2472 29.5213 64.4852 29.7687 64.7932 29.946C65.1012 30.114 65.4558 30.198 65.8572 30.198C66.2025 30.198 66.5198 30.1373 66.8092 30.016C67.1078 29.8947 67.3598 29.7173 67.5652 29.484L68.5452 30.478C68.2185 30.8607 67.8218 31.15 67.3552 31.346C66.8885 31.542 66.3938 31.64 65.8712 31.64ZM73.2097 31.64C72.5377 31.64 71.931 31.4907 71.3897 31.192C70.8577 30.884 70.433 30.464 70.1157 29.932C69.8077 29.4 69.6537 28.8027 69.6537 28.14C69.6537 27.4773 69.8077 26.8847 70.1157 26.362C70.4237 25.83 70.839 25.41 71.3617 25.102C71.8937 24.794 72.4817 24.64 73.1257 24.64C73.751 24.64 74.3017 24.7847 74.7777 25.074C75.263 25.3633 75.641 25.76 75.9117 26.264C76.1917 26.768 76.3317 27.342 76.3317 27.986C76.3317 28.098 76.3223 28.2147 76.3037 28.336C76.2943 28.448 76.2757 28.574 76.2477 28.714H70.7317V27.454H75.4497L74.8757 27.958C74.857 27.5473 74.7777 27.202 74.6377 26.922C74.4977 26.642 74.297 26.4273 74.0357 26.278C73.7837 26.1287 73.471 26.054 73.0977 26.054C72.7057 26.054 72.365 26.138 72.0757 26.306C71.7863 26.474 71.5623 26.712 71.4037 27.02C71.245 27.3187 71.1657 27.678 71.1657 28.098C71.1657 28.518 71.2497 28.8867 71.4177 29.204C71.5857 29.5213 71.8237 29.7687 72.1317 29.946C72.4397 30.114 72.7943 30.198 73.1957 30.198C73.541 30.198 73.8583 30.1373 74.1477 30.016C74.4463 29.8947 74.6983 29.7173 74.9037 29.484L75.8837 30.478C75.557 30.8607 75.1603 31.15 74.6937 31.346C74.227 31.542 73.7323 31.64 73.2097 31.64ZM80.2402 31.64C79.6335 31.64 79.0829 31.486 78.5882 31.178C78.1029 30.87 77.7155 30.4547 77.4262 29.932C77.1462 29.4 77.0062 28.8073 77.0062 28.154C77.0062 27.4913 77.1462 26.8987 77.4262 26.376C77.7155 25.844 78.1029 25.424 78.5882 25.116C79.0829 24.7987 79.6335 24.64 80.2402 24.64C80.7535 24.64 81.2062 24.752 81.5982 24.976C81.9995 25.1907 82.3169 25.4893 82.5502 25.872C82.7835 26.2547 82.9002 26.6887 82.9002 27.174V29.106C82.9002 29.5913 82.7835 30.0253 82.5502 30.408C82.3262 30.7907 82.0135 31.094 81.6122 31.318C81.2109 31.5327 80.7535 31.64 80.2402 31.64ZM80.4922 30.184C80.8749 30.184 81.2062 30.1 81.4862 29.932C81.7755 29.7547 81.9995 29.512 82.1582 29.204C82.3169 28.896 82.3962 28.5413 82.3962 28.14C82.3962 27.7387 82.3169 27.384 82.1582 27.076C81.9995 26.768 81.7755 26.53 81.4862 26.362C81.2062 26.1847 80.8749 26.096 80.4922 26.096C80.1189 26.096 79.7875 26.1847 79.4982 26.362C79.2182 26.53 78.9942 26.768 78.8262 27.076C78.6675 27.384 78.5882 27.7387 78.5882 28.14C78.5882 28.5413 78.6675 28.896 78.8262 29.204C78.9942 29.512 79.2182 29.7547 79.4982 29.932C79.7875 30.1 80.1189 30.184 80.4922 30.184ZM83.8382 31.5H82.2982V29.694L82.5642 28.056L82.2982 26.432V21.42H83.8382V31.5ZM88.28 31.5V21.7H89.89V31.5H88.28ZM94.51 31.5V21.7H96.12V31.5H94.51ZM89.386 27.16V25.69H94.86V27.16H89.386ZM101.019 31.64C100.347 31.64 99.7401 31.4907 99.1988 31.192C98.6668 30.884 98.2421 30.464 97.9248 29.932C97.6168 29.4 97.4628 28.8027 97.4628 28.14C97.4628 27.4773 97.6168 26.8847 97.9248 26.362C98.2328 25.83 98.6481 25.41 99.1708 25.102C99.7028 24.794 100.291 24.64 100.935 24.64C101.56 24.64 102.111 24.7847 102.587 25.074C103.072 25.3633 103.45 25.76 103.721 26.264C104.001 26.768 104.141 27.342 104.141 27.986C104.141 28.098 104.131 28.2147 104.113 28.336C104.103 28.448 104.085 28.574 104.057 28.714H98.5408V27.454H103.259L102.685 27.958C102.666 27.5473 102.587 27.202 102.447 26.922C102.307 26.642 102.106 26.4273 101.845 26.278C101.593 26.1287 101.28 26.054 100.907 26.054C100.515 26.054 100.174 26.138 99.8848 26.306C99.5955 26.474 99.3715 26.712 99.2128 27.02C99.0541 27.3187 98.9748 27.678 98.9748 28.098C98.9748 28.518 99.0588 28.8867 99.2268 29.204C99.3948 29.5213 99.6328 29.7687 99.9408 29.946C100.249 30.114 100.603 30.198 101.005 30.198C101.35 30.198 101.667 30.1373 101.957 30.016C102.255 29.8947 102.507 29.7173 102.713 29.484L103.693 30.478C103.366 30.8607 102.969 31.15 102.503 31.346C102.036 31.542 101.541 31.64 101.019 31.64ZM105.235 31.5V21.42H106.775V31.5H105.235ZM111.947 31.64C111.434 31.64 110.977 31.5327 110.575 31.318C110.174 31.094 109.857 30.7907 109.623 30.408C109.399 30.0253 109.287 29.5913 109.287 29.106V27.174C109.287 26.6887 109.404 26.2547 109.637 25.872C109.871 25.4893 110.188 25.1907 110.589 24.976C110.991 24.752 111.443 24.64 111.947 24.64C112.554 24.64 113.1 24.7987 113.585 25.116C114.08 25.424 114.467 25.844 114.747 26.376C115.037 26.8987 115.181 27.4913 115.181 28.154C115.181 28.8073 115.037 29.4 114.747 29.932C114.467 30.4547 114.08 30.87 113.585 31.178C113.1 31.486 112.554 31.64 111.947 31.64ZM111.695 30.184C112.069 30.184 112.395 30.1 112.675 29.932C112.965 29.7547 113.189 29.512 113.347 29.204C113.515 28.896 113.599 28.5413 113.599 28.14C113.599 27.7387 113.515 27.384 113.347 27.076C113.189 26.768 112.965 26.53 112.675 26.362C112.395 26.1847 112.069 26.096 111.695 26.096C111.322 26.096 110.991 26.1847 110.701 26.362C110.412 26.53 110.188 26.768 110.029 27.076C109.871 27.384 109.791 27.7387 109.791 28.14C109.791 28.5413 109.871 28.896 110.029 29.204C110.188 29.512 110.412 29.7547 110.701 29.932C110.991 30.1 111.322 30.184 111.695 30.184ZM108.349 34.3V24.78H109.889V26.586L109.623 28.224L109.889 29.848V34.3H108.349ZM118.472 28.252V25.55H118.85C119.158 25.55 119.424 25.494 119.648 25.382C119.882 25.2607 120.059 25.0973 120.18 24.892C120.311 24.6773 120.376 24.43 120.376 24.15C120.376 23.87 120.316 23.6273 120.194 23.422C120.073 23.2167 119.9 23.058 119.676 22.946C119.452 22.834 119.186 22.778 118.878 22.778C118.477 22.778 118.118 22.89 117.8 23.114C117.492 23.3287 117.245 23.6507 117.058 24.08L115.938 23.156C116.218 22.5493 116.62 22.0873 117.142 21.77C117.674 21.4433 118.281 21.28 118.962 21.28C119.55 21.28 120.068 21.3967 120.516 21.63C120.974 21.8633 121.328 22.19 121.58 22.61C121.832 23.0207 121.958 23.4967 121.958 24.038C121.958 24.542 121.846 24.99 121.622 25.382C121.408 25.774 121.1 26.1007 120.698 26.362C120.297 26.6233 119.821 26.8053 119.27 26.908L119.942 26.222L119.802 28.252H118.472ZM119.13 31.64C118.832 31.64 118.584 31.542 118.388 31.346C118.202 31.1407 118.108 30.8933 118.108 30.604C118.108 30.3053 118.202 30.058 118.388 29.862C118.584 29.666 118.832 29.568 119.13 29.568C119.429 29.568 119.672 29.666 119.858 29.862C120.054 30.058 120.152 30.3053 120.152 30.604C120.152 30.8933 120.054 31.1407 119.858 31.346C119.672 31.542 119.429 31.64 119.13 31.64Z" fill="black"/>
</g>
<defs>
<filter id="filter0_d_10340_6556" x="36" y="8.5" width="103" height="44" filterUnits="userSpaceOnUse" color-interpolation-filters="sRGB">
<feFlood flood-opacity="0" result="BackgroundImageFix"/>
<feColorMatrix in="SourceAlpha" type="matrix" values="0 0 0 0 0 0 0 0 0 0 0 0 0 0 0 0 0 0 127 0" result="hardAlpha"/>
<feOffset dy="4"/>
<feGaussianBlur stdDeviation="4"/>
<feColorMatrix type="matrix" values="0 0 0 0 0 0 0 0 0 0 0 0 0 0 0 0 0 0 0.16 0"/>
<feBlend mode="normal" in2="BackgroundImageFix" result="effect1_dropShadow_10340_6556"/>
<feBlend mode="normal" in="SourceGraphic" in2="effect1_dropShadow_10340_6556" result="shape"/>
</filter>
</defs>
</svg>
